<?xml version="1.0" standalone="no"?>
<!DOCTYPE svg PUBLIC "-//W3C//DTD SVG 20010904//EN"
 "http://www.w3.org/TR/2001/REC-SVG-20010904/DTD/svg10.dtd">
<svg version="1.0" xmlns="http://www.w3.org/2000/svg"
 width="225.000000pt" height="128.000000pt" viewBox="0 0 225.000000 128.000000"
 preserveAspectRatio="xMidYMid meet">

<g transform="translate(0.000000,128.000000) scale(0.100000,-0.100000)"
fill="#000000" stroke="none">
<path d="M1025 1265 c-73 -16 -155 -47 -213 -81 -106 -62 -226 -207 -267 -324
l-14 -40 142 0 c80 0 148 -4 155 -10 7 -5 6 -3 -1 6 -11 12 -41 16 -148 17
-74 1 -122 3 -107 5 24 3 27 8 30 50 l3 47 48 3 c36 2 47 0 47 -12 0 -12 29
-15 183 -19 100 -3 187 -5 192 -5 6 0 80 2 165 5 154 4 156 4 193 -21 50 -34
124 -36 168 -4 16 12 49 25 74 28 l44 5 -32 51 c-74 116 -162 195 -282 250
-128 59 -258 76 -380 49z"/>
<path d="M263 888 c2 -30 5 -33 40 -36 28 -2 37 0 37 12 0 12 11 16 43 16 35
0 49 -6 85 -41 23 -22 42 -37 42 -32 0 5 -17 26 -38 46 -33 32 -44 37 -84 37
-36 0 -48 4 -51 18 -3 9 -5 2 -6 -15 -1 -30 -4 -33 -30 -33 -25 0 -31 5 -35
30 -6 30 -6 30 -3 -2z"/>
<path d="M640 890 c0 -11 7 -20 15 -20 8 0 15 9 15 20 0 11 -7 20 -15 20 -8 0
-15 -9 -15 -20z"/>
<path d="M1820 890 l-85 -6 88 -2 c52 -1 87 2 87 8 0 6 -1 9 -2 8 -2 -1 -41
-5 -88 -8z"/>
<path d="M1910 858 c0 -5 16 -8 35 -8 19 0 35 3 35 8 0 4 -16 7 -35 7 -19 0
-35 -3 -35 -7z"/>
<path d="M704 853 c4 -4 84 -8 179 -9 l172 -2 50 -43 50 -43 -50 52 -49 52
-180 0 c-99 0 -176 -3 -172 -7z"/>
<path d="M1162 817 c50 -49 67 -53 20 -4 l-31 32 124 -2 c109 -1 128 -4 154
-22 41 -29 133 -29 181 0 23 14 52 22 82 22 27 0 48 4 48 8 0 5 -23 9 -51 9
-40 0 -58 -5 -81 -25 -24 -20 -40 -25 -88 -25 -48 0 -64 5 -88 25 -29 24 -35
25 -172 25 l-142 0 44 -43z"/>
<path d="M65 833 c16 -3 34 -10 38 -16 6 -8 7 -7 4 3 -2 9 -17 16 -38 16 -31
2 -31 1 -4 -3z"/>
<path d="M1630 805 c-9 -11 -41 -15 -128 -18 l-117 -3 128 -2 c105 -2 127 0
127 12 0 11 14 16 48 19 l47 3 -46 2 c-31 1 -51 -3 -59 -13z"/>
<path d="M1743 770 c0 -25 2 -35 4 -22 2 12 2 32 0 45 -2 12 -4 2 -4 -23z"/>
<path d="M1009 783 c-13 -16 -12 -17 3 -5 9 8 23 10 29 6 8 -4 9 -3 5 4 -10
17 -21 15 -37 -5z"/>
<path d="M593 773 c43 -2 110 -2 150 0 40 1 5 3 -78 3 -82 0 -115 -2 -72 -3z"/>
<path d="M1670 763 c0 -10 4 -14 8 -8 4 6 11 13 16 18 5 4 2 7 -7 7 -10 0 -17
-8 -17 -17z"/>
<path d="M959 733 l-24 -28 28 24 c15 14 27 26 27 28 0 8 -8 1 -31 -24z"/>
<path d="M618 743 c34 -2 90 -2 125 0 34 2 6 3 -63 3 -69 0 -97 -1 -62 -3z"/>
<path d="M1125 730 c-16 -7 -17 -9 -3 -9 9 -1 20 4 23 9 7 11 7 11 -20 0z"/>
<path d="M1663 703 c15 -2 39 -2 55 0 15 2 2 4 -28 4 -30 0 -43 -2 -27 -4z"/>
</g>
</svg>
